{
  "asset": {
    "generator": "glTF-Transform v4.1.1",
    "version": "2.0"
  },
  "accessors": [
    {
      "type": "SCALAR",
      "componentType": 5123,
      "count": 252,
      "normalized": false,
      "byteOffset": 0,
      "bufferView": 0
    },
    {
      "type": "VEC3",
      "componentType": 5122,
      "count": 116,
      "max": [
        27263,
        32767,
        29111
      ],
      "min": [
        -27263,
        -32767,
        -29111
      ],
      "normalized": true,
      "byteOffset": 0,
      "bufferView": 1
    },
    {
      "type": "VEC2",
      "componentType": 5123,
      "count": 116,
      "normalized": true,
      "byteOffset": 0,
      "bufferView": 2
    },
    {
      "type": "VEC3",
      "componentType": 5122,
      "count": 116,
      "normalized": true,
      "byteOffset": 0,
      "bufferView": 3
    }
  ],
  "bufferViews": [
    {
      "buffer": 1,
      "byteOffset": 0,
      "byteLength": 504,
      "target": 34963,
      "extensions": {
        "EXT_meshopt_compression": {
          "buffer": 0,
          "byteOffset": 0,
          "byteLength": 107,
          "mode": "TRIANGLES",
          "byteStride": 2,
          "count": 252
        }
      }
    },
    {
      "buffer": 1,
      "byteOffset": 504,
      "byteLength": 928,
      "target": 34962,
      "byteStride": 8,
      "extensions": {
        "EXT_meshopt_compression": {
          "buffer": 0,
          "byteOffset": 108,
          "byteLength": 769,
          "mode": "ATTRIBUTES",
          "byteStride": 8,
          "count": 116
        }
      }
    },
    {
      "buffer": 1,
      "byteOffset": 1432,
      "byteLength": 464,
      "target": 34962,
      "byteStride": 4,
      "extensions": {
        "EXT_meshopt_compression": {
          "buffer": 0,
          "byteOffset": 880,
          "byteLength": 419,
          "mode": "ATTRIBUTES",
          "byteStride": 4,
          "count": 116
        }
      }
    },
    {
      "buffer": 1,
      "byteOffset": 1896,
      "byteLength": 928,
      "target": 34962,
      "byteStride": 8,
      "extensions": {
        "EXT_meshopt_compression": {
          "buffer": 0,
          "byteOffset": 1300,
          "byteLength": 761,
          "mode": "ATTRIBUTES",
          "byteStride": 8,
          "count": 116
        }
      }
    }
  ],
  "samplers": [
    {
      "magFilter": 9729,
      "minFilter": 9987,
      "wrapS": 10497,
      "wrapT": 10497
    }
  ],
  "textures": [
    {
      "sampler": 0,
      "extensions": {
        "EXT_texture_webp": {
          "source": 0
        }
      }
    }
  ],
  "images": [
    {
      "name": "forest_texture",
      "mimeType": "image/webp",
      "uri": "forest_texture.webp"
    }
  ],
  "buffers": [
    {
      "uri": "Rock_3_C_Color1.bin",
      "byteLength": 2064
    },
    {
      "byteLength": 2824,
      "extensions": {
        "EXT_meshopt_compression": {
          "fallback": true
        }
      }
    }
  ],
  "materials": [
    {
      "name": "forest",
      "pbrMetallicRoughness": {
        "roughnessFactor": 0.6000000238418579,
        "metallicFactor": 0,
        "baseColorTexture": {
          "index": 0
        }
      }
    }
  ],
  "meshes": [
    {
      "name": "Rock_3_C_Color1",
      "primitives": [
        {
          "attributes": {
            "POSITION": 1,
            "TEXCOORD_0": 2,
            "NORMAL": 3
          },
          "mode": 4,
          "material": 0,
          "indices": 0
        }
      ]
    }
  ],
  "nodes": [
    {
      "name": "Rock_3_C_Color1",
      "translation": [
        -0.03970937430858612,
        -0.034742116928100586,
        0.02908387780189514
      ],
      "scale": [
        0.4837993383407593,
        0.4837993383407593,
        0.4837993383407593
      ],
      "mesh": 0
    }
  ],
  "scenes": [
    {
      "name": "Scene",
      "nodes": [
        0
      ]
    }
  ],
  "scene": 0,
  "extensionsUsed": [
    "EXT_meshopt_compression",
    "EXT_texture_webp",
    "KHR_mesh_quantization"
  ],
  "extensionsRequired": [
    "EXT_meshopt_compression",
    "EXT_texture_webp",
    "KHR_mesh_quantization"
  ]
}