{
  "asset": {
    "generator": "glTF-Transform v4.1.1",
    "version": "2.0"
  },
  "accessors": [
    {
      "type": "VEC3",
      "componentType": 5126,
      "count": 668,
      "max": [
        0.9712555408477783,
        1.2524663209915161,
        0.14893627166748047
      ],
      "min": [
        0.08884596824645996,
        0.9570232629776001,
        -0.14893615245819092
      ],
      "bufferView": 0,
      "byteOffset": 0
    },
    {
      "type": "VEC3",
      "componentType": 5126,
      "count": 668,
      "bufferView": 0,
      "byteOffset": 12
    },
    {
      "type": "VEC2",
      "componentType": 5126,
      "count": 668,
      "bufferView": 0,
      "byteOffset": 24
    },
    {
      "type": "VEC4",
      "componentType": 5121,
      "count": 668,
      "bufferView": 0,
      "byteOffset": 32
    },
    {
      "type": "VEC4",
      "componentType": 5126,
      "count": 668,
      "bufferView": 0,
      "byteOffset": 36
    },
    {
      "type": "SCALAR",
      "componentType": 5123,
      "count": 2460,
      "bufferView": 1,
      "byteOffset": 0
    },
    {
      "type": "SCALAR",
      "componentType": 5123,
      "count": 2460,
      "bufferView": 1,
      "byteOffset": 4920
    },
    {
      "type": "SCALAR",
      "componentType": 5123,
      "count": 10383,
      "bufferView": 1,
      "byteOffset": 9840
    },
    {
      "type": "SCALAR",
      "componentType": 5123,
      "count": 252,
      "bufferView": 1,
      "byteOffset": 30608
    },
    {
      "type": "SCALAR",
      "componentType": 5123,
      "count": 4800,
      "bufferView": 1,
      "byteOffset": 31112
    },
    {
      "type": "SCALAR",
      "componentType": 5123,
      "count": 2790,
      "bufferView": 1,
      "byteOffset": 40712
    },
    {
      "type": "SCALAR",
      "componentType": 5123,
      "count": 2790,
      "bufferView": 1,
      "byteOffset": 46292
    },
    {
      "type": "SCALAR",
      "componentType": 5123,
      "count": 765,
      "bufferView": 1,
      "byteOffset": 51872
    },
    {
      "type": "MAT4",
      "componentType": 5126,
      "count": 23,
      "bufferView": 2,
      "byteOffset": 0
    },
    {
      "type": "VEC3",
      "componentType": 5126,
      "count": 668,
      "max": [
        -0.08884596824645996,
        1.2524663209915161,
        0.14893627166748047
      ],
      "min": [
        -0.9712555408477783,
        0.9570232629776001,
        -0.14893615245819092
      ],
      "bufferView": 3,
      "byteOffset": 0
    },
    {
      "type": "VEC3",
      "componentType": 5126,
      "count": 668,
      "bufferView": 3,
      "byteOffset": 12
    },
    {
      "type": "VEC2",
      "componentType": 5126,
      "count": 668,
      "bufferView": 3,
      "byteOffset": 24
    },
    {
      "type": "VEC4",
      "componentType": 5121,
      "count": 668,
      "bufferView": 3,
      "byteOffset": 32
    },
    {
      "type": "VEC4",
      "componentType": 5126,
      "count": 668,
      "bufferView": 3,
      "byteOffset": 36
    },
    {
      "type": "VEC3",
      "componentType": 5126,
      "count": 3224,
      "max": [
        0.5084757208824158,
        1.3145368099212646,
        0.3509315550327301
      ],
      "min": [
        -0.5084757208824158,
        0.32466456294059753,
        -0.3468415141105652
      ],
      "bufferView": 4,
      "byteOffset": 0
    },
    {
      "type": "VEC3",
      "componentType": 5126,
      "count": 3224,
      "bufferView": 4,
      "byteOffset": 12
    },
    {
      "type": "VEC2",
      "componentType": 5126,
      "count": 3224,
      "bufferView": 4,
      "byteOffset": 24
    },
    {
      "type": "VEC4",
      "componentType": 5121,
      "count": 3224,
      "bufferView": 4,
      "byteOffset": 32
    },
    {
      "type": "VEC4",
      "componentType": 5126,
      "count": 3224,
      "bufferView": 4,
      "byteOffset": 36
    },
    {
      "type": "VEC3",
      "componentType": 5126,
      "count": 56,
      "max": [
        0.4853890538215637,
        1.26152503490448,
        -0.043504904955625534
      ],
      "min": [
        -0.4853677749633789,
        0.11958026885986328,
        -0.38609376549720764
      ],
      "bufferView": 5,
      "byteOffset": 0
    },
    {
      "type": "VEC3",
      "componentType": 5126,
      "count": 56,
      "bufferView": 5,
      "byteOffset": 12
    },
    {
      "type": "VEC2",
      "componentType": 5126,
      "count": 56,
      "bufferView": 5,
      "byteOffset": 24
    },
    {
      "type": "VEC4",
      "componentType": 5121,
      "count": 56,
      "bufferView": 5,
      "byteOffset": 32
    },
    {
      "type": "VEC4",
      "componentType": 5126,
      "count": 56,
      "bufferView": 5,
      "byteOffset": 36
    },
    {
      "type": "VEC3",
      "componentType": 5126,
      "count": 1172,
      "max": [
        0.5426634550094604,
        2.272925853729248,
        0.5350261330604553
      ],
      "min": [
        -0.5426494479179382,
        1.1927990913391113,
        -0.48784610629081726
      ],
      "bufferView": 6,
      "byteOffset": 0
    },
    {
      "type": "VEC3",
      "componentType": 5126,
      "count": 1172,
      "bufferView": 6,
      "byteOffset": 12
    },
    {
      "type": "VEC2",
      "componentType": 5126,
      "count": 1172,
      "bufferView": 6,
      "byteOffset": 24
    },
    {
      "type": "VEC4",
      "componentType": 5121,
      "count": 1172,
      "bufferView": 6,
      "byteOffset": 32
    },
    {
      "type": "VEC4",
      "componentType": 5126,
      "count": 1172,
      "bufferView": 6,
      "byteOffset": 36
    },
    {
      "type": "VEC3",
      "componentType": 5126,
      "count": 780,
      "max": [
        0.29099878668785095,
        0.5291943550109863,
        0.28061366081237793
      ],
      "min": [
        0.04587031155824661,
        -0.0020253092516213655,
        -0.1277633011341095
      ],
      "bufferView": 7,
      "byteOffset": 0
    },
    {
      "type": "VEC3",
      "componentType": 5126,
      "count": 780,
      "bufferView": 7,
      "byteOffset": 12
    },
    {
      "type": "VEC2",
      "componentType": 5126,
      "count": 780,
      "bufferView": 7,
      "byteOffset": 24
    },
    {
      "type": "VEC4",
      "componentType": 5121,
      "count": 780,
      "bufferView": 7,
      "byteOffset": 32
    },
    {
      "type": "VEC4",
      "componentType": 5126,
      "count": 780,
      "bufferView": 7,
      "byteOffset": 36
    },
    {
      "type": "VEC3",
      "componentType": 5126,
      "count": 780,
      "max": [
        -0.04587031155824661,
        0.5291943550109863,
        0.28061366081237793
      ],
      "min": [
        -0.29099878668785095,
        -0.0020253092516213655,
        -0.1277633011341095
      ],
      "bufferView": 8,
      "byteOffset": 0
    },
    {
      "type": "VEC3",
      "componentType": 5126,
      "count": 780,
      "bufferView": 8,
      "byteOffset": 12
    },
    {
      "type": "VEC2",
      "componentType": 5126,
      "count": 780,
      "bufferView": 8,
      "byteOffset": 24
    },
    {
      "type": "VEC4",
      "componentType": 5121,
      "count": 780,
      "bufferView": 8,
      "byteOffset": 32
    },
    {
      "type": "VEC3",
      "componentType": 5126,
      "count": 386,
      "max": [
        0.3216232657432556,
        1.3620381355285645,
        -0.26936015486717224
      ],
      "min": [
        -0.438076913356781,
        0.6051390171051025,
        -0.5143533945083618
      ],
      "bufferView": 9,
      "byteOffset": 0
    },
    {
      "type": "VEC3",
      "componentType": 5126,
      "count": 386,
      "bufferView": 9,
      "byteOffset": 12
    },
    {
      "type": "VEC2",
      "componentType": 5126,
      "count": 386,
      "bufferView": 9,
      "byteOffset": 24
    },
    {
      "type": "VEC4",
      "componentType": 5121,
      "count": 386,
      "bufferView": 9,
      "byteOffset": 32
    },
    {
      "type": "VEC4",
      "componentType": 5126,
      "count": 386,
      "bufferView": 9,
      "byteOffset": 36
    }
  ],
  "bufferViews": [
    {
      "buffer": 0,
      "byteOffset": 0,
      "byteLength": 34736,
      "byteStride": 52,
      "target": 34962
    },
    {
      "buffer": 0,
      "byteOffset": 34736,
      "byteLength": 53404,
      "target": 34963
    },
    {
      "buffer": 0,
      "byteOffset": 88140,
      "byteLength": 1472
    },
    {
      "buffer": 0,
      "byteOffset": 89612,
      "byteLength": 34736,
      "byteStride": 52,
      "target": 34962
    },
    {
      "buffer": 0,
      "byteOffset": 124348,
      "byteLength": 167648,
      "byteStride": 52,
      "target": 34962
    },
    {
      "buffer": 0,
      "byteOffset": 291996,
      "byteLength": 2912,
      "byteStride": 52,
      "target": 34962
    },
    {
      "buffer": 0,
      "byteOffset": 294908,
      "byteLength": 60944,
      "byteStride": 52,
      "target": 34962
    },
    {
      "buffer": 0,
      "byteOffset": 355852,
      "byteLength": 40560,
      "byteStride": 52,
      "target": 34962
    },
    {
      "buffer": 0,
      "byteOffset": 396412,
      "byteLength": 28080,
      "byteStride": 36,
      "target": 34962
    },
    {
      "buffer": 0,
      "byteOffset": 424492,
      "byteLength": 20072,
      "byteStride": 52,
      "target": 34962
    }
  ],
  "samplers": [
    {
      "magFilter": 9729,
      "minFilter": 9987,
      "wrapS": 10497,
      "wrapT": 10497
    }
  ],
  "textures": [
    {
      "sampler": 0,
      "extensions": {
        "EXT_texture_webp": {
          "source": 0
        }
      }
    }
  ],
  "images": [
    {
      "name": "ranger_texture",
      "mimeType": "image/webp",
      "uri": "ranger_texture.webp"
    }
  ],
  "buffers": [
    {
      "uri": "Ranger.bin",
      "byteLength": 444564
    }
  ],
  "materials": [
    {
      "name": "ranger",
      "doubleSided": true,
      "pbrMetallicRoughness": {
        "roughnessFactor": 0.5,
        "metallicFactor": 0,
        "baseColorTexture": {
          "index": 0
        }
      }
    }
  ],
  "meshes": [
    {
      "name": "Ranger_ArmLeft",
      "primitives": [
        {
          "attributes": {
            "POSITION": 0,
            "NORMAL": 1,
            "TEXCOORD_0": 2,
            "JOINTS_0": 3,
            "WEIGHTS_0": 4
          },
          "mode": 4,
          "material": 0,
          "indices": 5
        }
      ]
    },
    {
      "name": "Ranger_ArmRight",
      "primitives": [
        {
          "attributes": {
            "POSITION": 14,
            "NORMAL": 15,
            "TEXCOORD_0": 16,
            "JOINTS_0": 17,
            "WEIGHTS_0": 18
          },
          "mode": 4,
          "material": 0,
          "indices": 6
        }
      ]
    },
    {
      "name": "Ranger_Body",
      "primitives": [
        {
          "attributes": {
            "POSITION": 19,
            "NORMAL": 20,
            "TEXCOORD_0": 21,
            "JOINTS_0": 22,
            "WEIGHTS_0": 23
          },
          "mode": 4,
          "material": 0,
          "indices": 7
        }
      ]
    },
    {
      "name": "Ranger_Cape",
      "primitives": [
        {
          "attributes": {
            "POSITION": 24,
            "NORMAL": 25,
            "TEXCOORD_0": 26,
            "JOINTS_0": 27,
            "WEIGHTS_0": 28
          },
          "mode": 4,
          "material": 0,
          "indices": 8
        }
      ]
    },
    {
      "name": "Ranger_Head",
      "primitives": [
        {
          "attributes": {
            "POSITION": 29,
            "NORMAL": 30,
            "TEXCOORD_0": 31,
            "JOINTS_0": 32,
            "WEIGHTS_0": 33
          },
          "mode": 4,
          "material": 0,
          "indices": 9
        }
      ]
    },
    {
      "name": "Ranger_LegLeft",
      "primitives": [
        {
          "attributes": {
            "POSITION": 34,
            "NORMAL": 35,
            "TEXCOORD_0": 36,
            "JOINTS_0": 37,
            "WEIGHTS_0": 38
          },
          "mode": 4,
          "material": 0,
          "indices": 10
        }
      ]
    },
    {
      "name": "Ranger_LegRight",
      "primitives": [
        {
          "attributes": {
            "POSITION": 39,
            "NORMAL": 40,
            "TEXCOORD_0": 41,
            "JOINTS_0": 42,
            "WEIGHTS_0": 38
          },
          "mode": 4,
          "material": 0,
          "indices": 11
        }
      ]
    },
    {
      "name": "Ranger_Quiver",
      "primitives": [
        {
          "attributes": {
            "POSITION": 43,
            "NORMAL": 44,
            "TEXCOORD_0": 45,
            "JOINTS_0": 46,
            "WEIGHTS_0": 47
          },
          "mode": 4,
          "material": 0,
          "indices": 12
        }
      ]
    }
  ],
  "nodes": [
    {
      "name": "toes.l",
      "translation": [
        -1.5114396845206102e-8,
        0.16565002501010895,
        5.171392203351388e-9
      ],
      "rotation": [
        4.775987960670136e-8,
        0.920354962348938,
        -0.39108410477638245,
        5.801560831741881e-8
      ]
    },
    {
      "name": "foot.l",
      "translation": [
        1.833934670791848e-10,
        0.14943702518939972,
        9.65873825364838e-10
      ],
      "rotation": [
        -0.45523902773857117,
        1.6197549967955638e-8,
        -3.4356396838575165e-8,
        0.8903692960739136
      ],
      "children": [
        0
      ]
    },
    {
      "name": "lowerleg.l",
      "translation": [
        3.57975737941274e-9,
        0.22707749903202057,
        -6.140325137238278e-9
      ],
      "rotation": [
        0.1062251403927803,
        6.865227675234564e-8,
        -7.377025923460678e-8,
        0.9943422079086304
      ],
      "children": [
        1
      ]
    },
    {
      "name": "upperleg.l",
      "translation": [
        0.17094506323337555,
        0.11358726024627686,
        1.392327231286572e-8
      ],
      "rotation": [
        0.9998490810394287,
        -7.132765489359372e-8,
        -1.2042731256656225e-8,
        0.017373191192746162
      ],
      "children": [
        2
      ]
    },
    {
      "name": "toes.r",
      "translation": [
        2.1323326437894252e-10,
        0.16565002501010895,
        5.1714001969571655e-9
      ],
      "rotation": [
        2.1219815238282536e-8,
        0.920354962348938,
        -0.39108410477638245,
        6.450591172324494e-8
      ]
    },
    {
      "name": "foot.r",
      "translation": [
        -1.833922180782821e-10,
        0.14943702518939972,
        9.65878599323844e-10
      ],
      "rotation": [
        -0.45523902773857117,
        1.659820298982595e-7,
        2.250484687493781e-9,
        0.8903692960739136
      ],
      "children": [
        4
      ]
    },
    {
      "name": "lowerleg.r",
      "translation": [
        -3.57975737941274e-9,
        0.22707749903202057,
        -6.140325137238278e-9
      ],
      "rotation": [
        0.1062251403927803,
        -6.865229096320036e-8,
        7.377025923460678e-8,
        0.9943422079086304
      ],
      "children": [
        5
      ]
    },
    {
      "name": "upperleg.r",
      "translation": [
        -0.17094506323337555,
        0.11358726024627686,
        1.392327231286572e-8
      ],
      "rotation": [
        0.9998490810394287,
        7.426572778967966e-8,
        -3.172628026959501e-8,
        0.017373191192746162
      ],
      "children": [
        6
      ]
    },
    {
      "name": "head",
      "translation": [
        0,
        0.26879656314849854,
        0
      ]
    },
    {
      "name": "handslot.r",
      "translation": [
        -5.138920400327152e-10,
        0.09612506628036499,
        -0.05750012397766113
      ],
      "rotation": [
        1.6805922209428559e-9,
        -1.6805921099205534e-9,
        0.7071068286895752,
        0.7071067094802856
      ]
    },
    {
      "name": "hand.r",
      "translation": [
        3.9968028886505635e-15,
        0.07382583618164062,
        -2.220446049250313e-16
      ],
      "children": [
        9
      ]
    },
    {
      "name": "wrist.r",
      "translation": [
        -7.426281811717672e-9,
        0.26004382967948914,
        6.127964108371131e-11
      ],
      "rotation": [
        5.11842720984923e-11,
        3.0773722459187525e-10,
        -0.02665809914469719,
        0.9996446967124939
      ],
      "children": [
        10
      ]
    },
    {
      "name": "lowerarm.r",
      "translation": [
        -7.12192249618937e-11,
        0.2418973296880722,
        -1.1940561250867177e-7
      ],
      "rotation": [
        1.4942596049394297e-9,
        6.228115267958856e-8,
        0.05528552085161209,
        0.9984706044197083
      ],
      "children": [
        11
      ]
    },
    {
      "name": "upperarm.r",
      "translation": [
        -0.21200737357139587,
        0.13413214683532715,
        8.40246201505579e-8
      ],
      "rotation": [
        -0.514121413230896,
        0.48546773195266724,
        0.4854677617549896,
        0.514121949672699
      ],
      "children": [
        12
      ]
    },
    {
      "name": "handslot.l",
      "translation": [
        5.138920400327152e-10,
        0.09612506628036499,
        -0.05750012397766113
      ],
      "rotation": [
        1.6806123159796016e-9,
        1.6806122049572991e-9,
        -0.7071068286895752,
        0.7071067094802856
      ]
    },
    {
      "name": "hand.l",
      "translation": [
        9.054978988842777e-13,
        0.07382583618164062,
        -2.220446049250313e-16
      ],
      "children": [
        14
      ]
    },
    {
      "name": "wrist.l",
      "translation": [
        7.426281811717672e-9,
        0.26004382967948914,
        6.127964108371131e-11
      ],
      "rotation": [
        5.118455659314236e-11,
        -3.0774255366239345e-10,
        0.02665809914469719,
        0.9996446967124939
      ],
      "children": [
        15
      ]
    },
    {
      "name": "lowerarm.l",
      "translation": [
        -3.219664312936743e-9,
        0.24189729988574982,
        -1.1940561250867177e-7
      ],
      "rotation": [
        1.4942596049394297e-9,
        -6.228115267958856e-8,
        -0.05528552085161209,
        0.9984706044197083
      ],
      "children": [
        16
      ]
    },
    {
      "name": "upperarm.l",
      "translation": [
        0.21200737357139587,
        0.13413214683532715,
        8.40246201505579e-8
      ],
      "rotation": [
        -0.5141214728355408,
        -0.485467791557312,
        -0.4854677617549896,
        0.5141218900680542
      ],
      "children": [
        17
      ]
    },
    {
      "name": "chest",
      "translation": [
        0,
        0.37498795986175537,
        0
      ],
      "children": [
        8,
        13,
        18
      ]
    },
    {
      "name": "spine",
      "translation": [
        0,
        0.19197750091552734,
        0
      ],
      "children": [
        19
      ]
    },
    {
      "name": "hips",
      "translation": [
        0,
        0.4056634306907654,
        0
      ],
      "children": [
        3,
        7,
        20
      ]
    },
    {
      "name": "root",
      "children": [
        21
      ]
    },
    {
      "name": "Ranger_ArmLeft",
      "mesh": 0,
      "skin": 0
    },
    {
      "name": "Ranger_ArmRight",
      "mesh": 1,
      "skin": 0
    },
    {
      "name": "Ranger_Body",
      "mesh": 2,
      "skin": 0
    },
    {
      "name": "Ranger_Cape",
      "mesh": 3,
      "skin": 0
    },
    {
      "name": "Ranger_Head",
      "mesh": 4,
      "skin": 0
    },
    {
      "name": "Ranger_LegLeft",
      "mesh": 5,
      "skin": 0
    },
    {
      "name": "Ranger_LegRight",
      "mesh": 6,
      "skin": 0
    },
    {
      "name": "Ranger_Quiver",
      "mesh": 7,
      "skin": 0
    },
    {
      "name": "Rig_Medium",
      "children": [
        23,
        24,
        25,
        26,
        27,
        28,
        29,
        30,
        22
      ]
    }
  ],
  "skins": [
    {
      "name": "Rig_Medium",
      "inverseBindMatrices": 13,
      "joints": [
        22,
        21,
        3,
        2,
        1,
        0,
        7,
        6,
        5,
        4,
        20,
        19,
        8,
        13,
        12,
        11,
        10,
        9,
        18,
        17,
        16,
        15,
        14
      ]
    }
  ],
  "scenes": [
    {
      "name": "Scene",
      "nodes": [
        31
      ]
    }
  ],
  "scene": 0,
  "extensionsUsed": [
    "EXT_texture_webp"
  ],
  "extensionsRequired": [
    "EXT_texture_webp"
  ]
}